HIERARCHY
ROOT Root
{
  OFFSET 0.0 0.0 0.0
  CHANNELS 6 Xposition Yposition Zposition Zrotation Yrotation Xrotation
  JOINT Hips
  {
    OFFSET 0.0 100.0 0.0
    CHANNELS 6 Xposition Yposition Zposition Zrotation Yrotation Xrotation
    JOINT Spine1
    {
      OFFSET -0.013727 5.003763 -0.053727
      CHANNELS 3 Zrotation Yrotation Xrotation
      JOINT Spine2
      {
        OFFSET -0.0 7.125301 -0.029825
        CHANNELS 3 Zrotation Yrotation Xrotation
        JOINT Chest
        {
          OFFSET -1e-06 7.550063 -0.815971
          CHANNELS 3 Zrotation Yrotation Xrotation
          JOINT Neck1
          {
            OFFSET -0.181677 26.311295 -0.553348
            CHANNELS 3 Zrotation Yrotation Xrotation
            JOINT Neck2
            {
              OFFSET -3e-06 7.709397 2.302585
              CHANNELS 3 Zrotation Yrotation Xrotation
              JOINT Head
              {
                OFFSET -5e-06 6.128916 1.953709
                CHANNELS 3 Zrotation Yrotation Xrotation
                JOINT HeadEnd
                {
                  OFFSET 0.003598 16.065403 -1.835379
                  CHANNELS 3 Zrotation Yrotation Xrotation
                }
                JOINT Jaw
                {
                  OFFSET 0.002637 0.475592 3.094941
                  CHANNELS 3 Zrotation Yrotation Xrotation
                }
                JOINT LeftEye
                {
                  OFFSET 3.206381 5.380205 7.586883
                  CHANNELS 3 Zrotation Yrotation Xrotation
                }
                JOINT RightEye
                {
                  OFFSET -3.22244 5.361869 7.558234
                  CHANNELS 3 Zrotation Yrotation Xrotation
                }
              }
            }
          }
          JOINT LeftShoulder
          {
            OFFSET 1.621652 23.237164 5.113413
            CHANNELS 3 Zrotation Yrotation Xrotation
            JOINT LeftArm
            {
              OFFSET 14.919846 2e-06 -5.502326
              CHANNELS 3 Zrotation Yrotation Xrotation
              JOINT LeftForeArm
              {
                OFFSET 28.739307 0.0 -0.002588
                CHANNELS 3 Zrotation Yrotation Xrotation
                JOINT LeftHand
                {
                  OFFSET 27.093981 -1e-06 0.002609
                  CHANNELS 3 Zrotation Yrotation Xrotation
                  JOINT LeftHandThumb1
                  {
                    OFFSET 2.276482 -1.392045 3.191413
                    CHANNELS 3 Zrotation Yrotation Xrotation
                    JOINT LeftHandThumb2
                    {
                      OFFSET 4.012836 -1.828127 1.641654
                      CHANNELS 3 Zrotation Yrotation Xrotation
                      JOINT LeftHandThumb3
                      {
                        OFFSET 2.798515 0.0 -3e-06
                        CHANNELS 3 Zrotation Yrotation Xrotation
                        JOINT LeftHandThumbEnd
                        {
                          OFFSET 3.180793 -4e-06 4e-06
                          CHANNELS 3 Zrotation Yrotation Xrotation
                        }
                      }
                    }
                  }
                  JOINT LeftHandIndex1
                  {
                    OFFSET 3.247555 -0.531998 2.296169
                    CHANNELS 3 Zrotation Yrotation Xrotation
                    JOINT LeftHandIndex2
                    {
                      OFFSET 6.364578 0.01206 0.1786
                      CHANNELS 3 Zrotation Yrotation Xrotation
                      JOINT LeftHandIndex3
                      {
                        OFFSET 3.662364 0.0 0.0
                        CHANNELS 3 Zrotation Yrotation Xrotation
                        JOINT LeftHandIndex4
                        {
                          OFFSET 2.329242 4e-06 4e-06
                          CHANNELS 3 Zrotation Yrotation Xrotation
                          JOINT LeftHandIndexEnd
                          {
                            OFFSET 2.759615 -0.180537 -0.113024
                            CHANNELS 3 Zrotation Yrotation Xrotation
                          }
                        }
                      }
                    }
                  }
                  JOINT LeftHandMiddle1
                  {
                    OFFSET 3.163495 0.240981 1.000332
                    CHANNELS 3 Zrotation Yrotation Xrotation
                    JOINT LeftHandMiddle2
                    {
                      OFFSET 6.19078 -0.259278 -1.002548
                      CHANNELS 3 Zrotation Yrotation Xrotation
                      JOINT LeftHandMiddle3
                      {
                        OFFSET 4.35652 -4e-06 -1e-06
                        CHANNELS 3 Zrotation Yrotation Xrotation
                        JOINT LeftHandMiddle4
                        {
                          OFFSET 2.996877 -8e-06 0.0
                          CHANNELS 3 Zrotation Yrotation Xrotation
                          JOINT LeftHandMiddleEnd
                          {
                            OFFSET 2.304287 -0.294569 -0.031741
                            CHANNELS 3 Zrotation Yrotation Xrotation
                          }
                        }
                      }
                    }
                  }
                  JOINT LeftHandRing1
                  {
                    OFFSET 2.882643 -0.053652 -0.322543
                    CHANNELS 3 Zrotation Yrotation Xrotation
                    JOINT LeftHandRing2
                    {
                      OFFSET 5.854541 -0.486202 -1.373841
                      CHANNELS 3 Zrotation Yrotation Xrotation
                      JOINT LeftHandRing3
                      {
                        OFFSET 4.350578 0.0 3e-06
                        CHANNELS 3 Zrotation Yrotation Xrotation
                        JOINT LeftHandRing4
                        {
                          OFFSET 2.651321 7e-06 2e-06
                          CHANNELS 3 Zrotation Yrotation Xrotation
                          JOINT LeftHandRingEnd
                          {
                            OFFSET 1.936105 0.077687 -7.1e-05
                            CHANNELS 3 Zrotation Yrotation Xrotation
                          }
                        }
                      }
                    }
                  }
                  JOINT LeftHandPinky1
                  {
                    OFFSET 2.8655 -0.310005 -1.600378
                    CHANNELS 3 Zrotation Yrotation Xrotation
                    JOINT LeftHandPinky2
                    {
                      OFFSET 5.087849 -1.331141 -1.77123
                      CHANNELS 3 Zrotation Yrotation Xrotation
                      JOINT LeftHandPinky3
                      {
                        OFFSET 3.070974 4e-06 0.0
                        CHANNELS 3 Zrotation Yrotation Xrotation
                        JOINT LeftHandPinky4
                        {
                          OFFSET 1.549672 0.0 1e-06
                          CHANNELS 3 Zrotation Yrotation Xrotation
                          JOINT LeftHandPinkyEnd
                          {
                            OFFSET 1.944893 -0.157802 0.057219
                            CHANNELS 3 Zrotation Yrotation Xrotation
                          }
                        }
                      }
                    }
                  }
                }
              }
            }
          }
          JOINT RightShoulder
          {
            OFFSET -1.380118 23.180309 5.214158
            CHANNELS 3 Zrotation Yrotation Xrotation
            JOINT RightArm
            {
              OFFSET -15.037196 1.2e-05 -5.545604
              CHANNELS 3 Zrotation Yrotation Xrotation
              JOINT RightForeArm
              {
                OFFSET -28.736639 2e-06 -0.002597
                CHANNELS 3 Zrotation Yrotation Xrotation
                JOINT RightHand
                {
                  OFFSET -27.133619 -0.0 0.002613
                  CHANNELS 3 Zrotation Yrotation Xrotation
                  JOINT RightHandThumb1
                  {
                    OFFSET -2.274032 -1.383988 3.163127
                    CHANNELS 3 Zrotation Yrotation Xrotation
                    JOINT RightHandThumb2
                    {
                      OFFSET -4.011429 -1.827466 1.640914
                      CHANNELS 3 Zrotation Yrotation Xrotation
                      JOINT RightHandThumb3
                      {
                        OFFSET -2.794935 -4e-06 -3e-06
                        CHANNELS 3 Zrotation Yrotation Xrotation
                        JOINT RightHandThumbEnd
                        {
                          OFFSET -3.183852 4e-06 1e-06
                          CHANNELS 3 Zrotation Yrotation Xrotation
                        }
                      }
                    }
                  }
                  JOINT RightHandIndex1
                  {
                    OFFSET -3.253266 -0.520057 2.282866
                    CHANNELS 3 Zrotation Yrotation Xrotation
                    JOINT RightHandIndex2
                    {
                      OFFSET -6.341917 0.012471 0.178266
                      CHANNELS 3 Zrotation Yrotation Xrotation
                      JOINT RightHandIndex3
                      {
                        OFFSET -3.654871 -8e-06 -0.0
                        CHANNELS 3 Zrotation Yrotation Xrotation
                        JOINT RightHandIndex4
                        {
                          OFFSET -2.327586 0.0 1e-06
                          CHANNELS 3 Zrotation Yrotation Xrotation
                          JOINT RightHandIndexEnd
                          {
                            OFFSET -2.76179 -0.180656 -0.113078
                            CHANNELS 3 Zrotation Yrotation Xrotation
                          }
                        }
                      }
                    }
                  }
                  JOINT RightHandMiddle1
                  {
                    OFFSET -3.168106 0.246593 1.00103
                    CHANNELS 3 Zrotation Yrotation Xrotation
                    JOINT RightHandMiddle2
                    {
                      OFFSET -6.180828 -0.258836 -1.000895
                      CHANNELS 3 Zrotation Yrotation Xrotation
                      JOINT RightHandMiddle3
                      {
                        OFFSET -4.348901 0.0 -0.0
                        CHANNELS 3 Zrotation Yrotation Xrotation
                        JOINT RightHandMiddle4
                        {
                          OFFSET -3.00024 -4e-06 -2e-06
                          CHANNELS 3 Zrotation Yrotation Xrotation
                          JOINT RightHandMiddleEnd
                          {
                            OFFSET -2.30252 -0.29437 -0.031706
                            CHANNELS 3 Zrotation Yrotation Xrotation
                          }
                        }
                      }
                    }
                  }
                  JOINT RightHandRing1
                  {
                    OFFSET -2.88569 -0.067952 -0.308858
                    CHANNELS 3 Zrotation Yrotation Xrotation
                    JOINT RightHandRing2
                    {
                      OFFSET -5.854198 -0.48613 -1.373731
                      CHANNELS 3 Zrotation Yrotation Xrotation
                      JOINT RightHandRing3
                      {
                        OFFSET -4.33881 -4e-06 -0.0
                        CHANNELS 3 Zrotation Yrotation Xrotation
                        JOINT RightHandRing4
                        {
                          OFFSET -2.654903 -4e-06 4e-06
                          CHANNELS 3 Zrotation Yrotation Xrotation
                          JOINT RightHandRingEnd
                          {
                            OFFSET -1.933568 0.077527 -5.2e-05
                            CHANNELS 3 Zrotation Yrotation Xrotation
                          }
                        }
                      }
                    }
                  }
                  JOINT RightHandPinky1
                  {
                    OFFSET -2.866425 -0.342796 -1.584145
                    CHANNELS 3 Zrotation Yrotation Xrotation
                    JOINT RightHandPinky2
                    {
                      OFFSET -5.091371 -1.332055 -1.772385
                      CHANNELS 3 Zrotation Yrotation Xrotation
                      JOINT RightHandPinky3
                      {
                        OFFSET -3.062664 -4e-06 1e-06
                        CHANNELS 3 Zrotation Yrotation Xrotation
                        JOINT RightHandPinky4
                        {
                          OFFSET -1.546529 4e-06 -2e-06
                          CHANNELS 3 Zrotation Yrotation Xrotation
                          JOINT RightHandPinkyEnd
                          {
                            OFFSET -1.945119 -0.157718 0.057211
                            CHANNELS 3 Zrotation Yrotation Xrotation
                          }
                        }
                      }
                    }
                  }
                }
              }
            }
          }
        }
      }
    }
    JOINT LeftLeg
    {
      OFFSET 10.043214 -8.434526 2.595655
      CHANNELS 3 Zrotation Yrotation Xrotation
      JOINT LeftShin
      {
        OFFSET -1e-06 -43.221752 -0.802913
        CHANNELS 3 Zrotation Yrotation Xrotation
        JOINT LeftFoot
        {
          OFFSET 1e-06 -42.155094 -3.481523
          CHANNELS 3 Zrotation Yrotation Xrotation
          JOINT LeftToeBase
          {
            OFFSET 0.0 -5.059472 13.231529
            CHANNELS 3 Zrotation Yrotation Xrotation
            JOINT LeftToeEnd
            {
              OFFSET -0.009607 -1.647619 6.513017
              CHANNELS 3 Zrotation Yrotation Xrotation
            }
          }
        }
      }
    }
    JOINT RightLeg
    {
      OFFSET -10.047278 -8.29526 2.620317
      CHANNELS 3 Zrotation Yrotation Xrotation
      JOINT RightShin
      {
        OFFSET 1e-06 -43.362206 -0.805556
        CHANNELS 3 Zrotation Yrotation Xrotation
        JOINT RightFoot
        {
          OFFSET 2e-06 -42.117393 -3.478398
          CHANNELS 3 Zrotation Yrotation Xrotation
          JOINT RightToeBase
          {
            OFFSET -0.0 -5.079609 13.284196
            CHANNELS 3 Zrotation Yrotation Xrotation
            JOINT RightToeEnd
            {
              OFFSET 0.009532 -1.634378 6.460591
              CHANNELS 3 Zrotation Yrotation Xrotation
            }
          }
        }
      }
    }
  }
}
MOTION
Frames: 4
Frame Time: 0.03333333333333333
0.0 0.0 0.0 0.0 -0.0 0.0 18.117657 96.370659 593.526917 3.177889 2.580608 -7.0853 -2.127244 -0.26797 1.29743 -0.814083 -1.5341 -4.211516 -2.486506 -3.453947 13.286601 -0.752867 2.655206 3.482358 -0.473737 0.860211 -3.511324 1.028265 -0.180787 -14.392198 7.7e-05 -2.3e-05 6e-06 0.006918 -1e-05 0.066306 0.604584 -3.753102 -10.512056 -0.597419 3.752834 -10.512279 -7.759401 -10.723303 11.49482 -59.774681 -14.644103 -0.512195 0.390896 -38.809116 -0.011379 12.781073 -5.272385 -1.717079 -5.882108 9.861288 0.702592 -10.936877 -0.360574 7.156212 1e-06 8.774828 1e-06 -15.452917 18.402555 6.440394 -1.844032 2.498506 -2.507279 -10.163605 4.678948 4.621113 -20.976034 -0.0 7e-06 -21.226294 2.451702 -3.593997 1e-06 -7e-06 -2e-06 -1.362682 2.240798 -0.746323 -21.334925 0.584908 3.00833 -13.82122 -2e-06 6e-06 -23.88718 -0.249075 -0.839481 -60.328331 2.785199 -1.232553 -0.294025 1.679689 0.833256 -14.218217 0.093216 1.300585 -34.212067 -0.287561 0.967178 -20.033226 0.964541 1.212847 0.0 1e-06 0.0 -3.44039 0.788235 0.501657 -15.928192 -3.167309 2.999711 -6.338829 2e-06 2e-06 -18.123455 3.648184 -4.905669 -4e-06 -0.0 -3e-06 10.589568 9.202639 14.908486 70.595596 -3.47148 15.048969 0.052238 19.807831 0.083437 -2.685425 3.864653 5.583146 2.243542 -5.255038 -3.180158 14.282889 -0.826597 6.952502 -1e-06 -12.690607 -1e-06 16.391785 -17.610758 2.48006 1.665667 -1.955922 -2.878298 4.727799 -4.170589 4.993924 11.020528 1e-06 -1e-06 12.109055 -3.735719 -2.866784 0.0 -0.0 -1e-06 1.291986 -1.92855 -1.498088 14.800129 0.567466 3.865605 14.242573 -1.341738 -6.660661 19.631968 0.143925 -0.648248 49.884354 -0.549009 -6.457024 0.353029 -1.511151 -0.03194 20.222788 3.684308 2.316629 18.78727 2e-06 -4e-06 10.751629 -0.479869 1.397906 -1e-06 -0.0 -0.0 3.273806 0.305947 -0.580112 21.486809 11.830373 2.266131 8.162926 1e-06 -1e-06 18.399088 -3.798988 -4.940579 3e-06 -1e-06 -1e-06 -5.971757 3.625352 20.645185 0.005593 0.276315 1.674933 0.792907 7.108635 -13.784114 1.727209 -2.098165 -0.92649 -0.0 0.0 2e-06 -2.928676 -7.560986 -23.643303 0.04513 -0.160975 20.23127 1.477076 -14.75324 1.231016 -1.404962 1.104174 -4.676971 -0.0 0.0 -1e-06 
0.0 0.0 0.0 0.0 -0.0 0.0 17.929585 95.044914 599.067993 3.447579 4.618412 -6.701523 -2.433151 -0.277295 0.93641 -0.979209 -1.935625 -4.35061 -2.764843 -3.787091 13.505273 0.386933 2.287222 3.50774 -0.446836 0.475479 -3.500356 0.659978 -0.355582 -14.407999 7.7e-05 -2.2e-05 6e-06 0.018432 0.037478 0.066265 0.61734 -3.716544 -10.553148 -0.586264 3.793395 -10.561029 -6.785186 -11.682309 11.201873 -58.310677 -16.659416 -0.475614 0.499405 -42.297291 0.082238 12.671968 -5.773082 0.182064 -5.882109 9.86129 0.702589 -10.936873 -0.360575 7.156209 -0.0 8.77483 -1e-06 -15.452347 18.340599 6.472164 -1.844033 2.498505 -2.507279 -10.163602 4.678946 4.621109 -20.976032 -5e-06 -2e-06 -21.226297 2.451698 -3.594005 -0.0 -6e-06 1e-06 -1.362683 2.240798 -0.746323 -21.334923 0.584911 3.00832 -13.821223 -2e-06 -1e-06 -23.887182 -0.249082 -0.839488 -60.23341 2.698151 -1.201823 -0.294025 1.679689 0.833256 -14.218214 0.093216 1.300579 -34.212059 -0.287568 0.967163 -20.03322 0.964534 1.212841 -1e-06 2e-06 0.0 -3.440389 0.788234 0.501656 -15.928189 -3.16731 2.999706 -6.338829 2e-06 -0.0 -18.123453 3.648181 -4.905675 -4e-06 0.0 -3e-06 11.219515 8.15284 14.68316 70.913719 -6.388542 13.516227 0.159053 20.158331 0.163731 -2.468632 4.847518 5.943504 2.243544 -5.255042 -3.180161 14.282908 -0.826595 6.95251 -3e-06 -12.690618 0.0 16.399204 -17.684914 2.437343 1.665668 -1.955923 -2.878303 4.727805 -4.170592 4.993929 11.02054 4e-06 -1e-06 12.109066 -3.735718 -2.866786 -0.0 -1e-06 -1e-06 1.291987 -1.928551 -1.498091 14.800148 0.567469 3.865611 14.242588 -1.341736 -6.660662 19.63199 0.143926 -0.648244 50.089962 -0.582429 -6.507143 0.353029 -1.511152 -0.03194 20.222816 3.684315 2.316634 18.7873 6e-06 0.0 10.751642 -0.479869 1.397909 -1e-06 1e-06 -1e-06 3.273811 0.305947 -0.580112 21.486837 11.830387 2.266136 8.162937 2e-06 -1e-06 18.399103 -3.798988 -4.940579 3e-06 1e-06 -1e-06 -5.136674 3.875194 24.097729 -0.019389 0.249124 1.595064 0.154747 4.979198 -15.540863 1.780366 -2.035133 -1.490355 -0.0 -0.0 2e-06 -3.337833 -7.674915 -22.830196 0.166689 -0.081805 5.359013 3.22446 -13.698483 0.642485 -1.270799 1.211166 -4.667083 -0.0 -0.0 -0.0 
0.0 0.0 0.0 0.0 -0.0 0.0 17.630219 93.855598 604.753235 3.084999 6.238868 -6.339118 -2.263876 -0.303676 0.554482 -1.084798 -2.272557 -4.49768 -2.845294 -3.944456 13.628485 1.325953 1.845741 3.26771 -0.465534 0.449566 -3.509161 0.429483 -0.487419 -14.312529 7.7e-05 -2.2e-05 6e-06 0.021833 0.030372 0.061263 0.608813 -3.727196 -10.586166 -0.569352 3.793298 -10.581799 -6.288536 -12.305666 10.909817 -57.006916 -17.845659 -0.95761 -0.020793 -45.842957 0.387837 12.303534 -6.328763 2.408707 -5.882108 9.861285 0.70259 -10.93687 -0.360575 7.156208 0.0 8.774823 0.0 -15.499499 18.314579 6.47531 -1.844033 2.498503 -2.507279 -10.163599 4.678944 4.621109 -20.976023 -2e-06 1e-06 -21.226286 2.4517 -3.594002 0.0 -6e-06 -1e-06 -1.362681 2.240798 -0.746324 -21.334913 0.584913 3.008323 -13.821215 -2e-06 0.0 -23.887169 -0.249077 -0.839486 -60.491318 2.568603 -0.969896 -0.294024 1.679686 0.833255 -14.218207 0.093216 1.300582 -34.212048 -0.28756 0.967168 -20.033211 0.964538 1.212842 -1e-06 1e-06 1e-06 -3.440389 0.788234 0.501654 -15.928185 -3.167308 2.999708 -6.338826 -0.0 2e-06 -18.123444 3.64818 -4.905669 -5e-06 1e-06 -2e-06 12.123534 7.407273 14.566113 71.071579 -8.553449 11.481194 0.146604 19.971966 0.129975 -2.388696 5.68066 5.880923 2.243542 -5.255037 -3.180158 14.282894 -0.826595 6.952503 -2e-06 -12.690607 2e-06 16.393446 -17.651114 2.438949 1.665667 -1.955921 -2.8783 4.7278 -4.170589 4.993924 11.020529 3e-06 -0.0 12.109057 -3.735717 -2.866785 -1e-06 -0.0 -1e-06 1.291986 -1.928549 -1.498089 14.800132 0.567468 3.865607 14.242577 -1.341736 -6.660657 19.631971 0.143925 -0.648246 50.027538 -0.564235 -6.608706 0.353029 -1.511151 -0.031939 20.222797 3.68431 2.316629 18.787275 4e-06 -4e-06 10.751631 -0.479868 1.397906 -1e-06 -0.0 -1e-06 3.273808 0.305947 -0.58011 21.48682 11.830376 2.266132 8.16293 1e-06 -0.0 18.39909 -3.798985 -4.940577 2e-06 1e-06 -2e-06 -3.350878 3.783569 27.523899 -0.106309 0.116754 1.563213 -1.02918 3.169811 -15.696618 1.833017 -1.900074 -2.676078 -0.0 -0.0 2e-06 -2.980015 -7.14094 -23.968941 0.035394 0.145875 -0.164239 5.032446 -13.306936 -2.821334 -1.178649 1.214632 -4.680921 -0.0 0.0 -1e-06 
0.0 0.0 0.0 0.0 -0.0 0.0 17.23708 92.852364 610.591003 2.067724 7.227104 -5.93164 -1.655266 -0.32341 0.072327 -1.033598 -2.559408 -4.658628 -2.683405 -4.044589 13.626611 1.833737 1.56248 2.724349 -0.539683 0.551921 -3.504663 0.474458 -0.790946 -14.167079 7.7e-05 -2.3e-05 7e-06 0.018435 0.034786 0.076561 0.611629 -3.72413 -10.546648 -0.577649 3.800092 -10.529944 -6.177608 -12.669586 10.820289 -56.3839 -18.057219 -1.893561 -0.627929 -49.147701 0.691856 12.29054 -6.839638 3.578614 -5.882103 9.861283 0.702591 -10.936866 -0.360574 7.156201 0.0 8.774824 -0.0 -15.827991 18.233597 6.37484 -1.844031 2.498505 -2.507277 -10.163595 4.678944 4.621105 -20.976015 -4e-06 -0.0 -21.226276 2.451697 -3.593999 1e-06 -6e-06 -2e-06 -1.36268 2.240797 -0.746324 -21.334906 0.584909 3.008321 -13.821212 -0.0 1e-06 -23.887159 -0.24908 -0.839483 -60.761745 2.43154 -0.87528 -0.294024 1.679688 0.833256 -14.218202 0.093215 1.30058 -34.212036 -0.287564 0.967168 -20.033205 0.964534 1.212843 -0.0 -1e-06 -0.0 -3.440387 0.788233 0.501656 -15.928179 -3.16731 2.999706 -6.338825 -2e-06 1e-06 -18.12344 3.648181 -4.905669 -4e-06 1e-06 -2e-06 12.85488 7.063133 14.55332 71.06797 -9.45082 10.055219 0.106004 18.629889 0.060428 -2.447464 5.922833 5.430216 2.243541 -5.255036 -3.180158 14.282887 -0.826595 6.952503 -1e-06 -12.690602 1e-06 16.429884 -17.573236 2.406524 1.665666 -1.955921 -2.878299 4.727798 -4.170586 4.993925 11.020524 3e-06 -0.0 12.109051 -3.735716 -2.866783 -0.0 -0.0 -0.0 1.291985 -1.928549 -1.49809 14.800125 0.567468 3.865608 14.242569 -1.341737 -6.660656 19.631962 0.143926 -0.648245 49.905415 -0.436385 -6.578431 0.353029 -1.51115 -0.03194 20.222786 3.684308 2.31663 18.78727 4e-06 -2e-06 10.751625 -0.47987 1.397906 -2e-06 0.0 -0.0 3.273806 0.305947 -0.58011 21.486811 11.830373 2.266134 8.162926 1e-06 0.0 18.39908 -3.798985 -4.940574 1e-06 -0.0 -2e-06 -0.663354 3.824126 30.164509 -0.070181 -0.196446 2.691879 -2.291846 1.60522 -14.250017 1.885917 -1.844269 -5.735667 -0.0 -0.0 2e-06 -1.335634 -7.463186 -25.176933 0.013643 0.175384 1.812947 5.220816 -13.237879 -3.90216 -1.165564 1.254773 -5.258251 0.0 -0.0 -1e-06 
